<svg width="1148.000000pt" height="1155.000000pt" viewBox="0 0 1148.000000 1155.000000" xmlns="http://www.w3.org/2000/svg">
  <g transform="translate(0.000000,1155.000000) scale(0.100000,-0.100000)" fill="#fefefe" stroke="none">
    <path d="M0 5775 c0 -5775 0 -5775 5740 -5775 5740 0 5740 0 5740 5775 0 5775
0 5775 -5740 5775 -5740 0 -5740 0 -5740 -5775z m6567 4255 c1135 -492 1050
-469 1666 -434 97 6 97 6 97 -1719 0 -1949 8 -1769 -95 -2034 -267 -683 -821
-1302 -1579 -1763 -83 -50 -279 -169 -436 -264 -549 -332 -849 -526 -857 -556
-12 -44 -59 -31 -73 20 -27 101 -599 488 -896 605 -577 229 -1060 563 -1396
965 -44 52 -92 109 -107 125 -94 100 -288 450 -366 660 -117 315 -110 168
-113 2183 -2 1812 -2 1812 397 1812 399 0 399 0 1496 454 1097 454 1097 454
1159 426 33 -15 530 -231 1103 -480z m376 -7070 c-27 -11 -37 -362 -11 -388
36 -36 157 -10 188 41 22 36 26 23 8 -34 -11 -39 -11 -39 -182 -38 -94 1 -161
4 -149 6 41 8 44 22 41 219 -3 188 -3 188 -28 195 -14 4 13 7 65 7 63 1 83 -2
68 -8z m-2171 -36 c181 -127 90 -404 -133 -404 -249 0 -313 323 -84 427 55 24
166 13 217 -23z m858 -12 c0 -26 -4 -41 -10 -37 -5 3 -10 12 -10 20 0 24 -43
45 -92 45 -48 0 -48 0 -48 -195 0 -194 0 -196 23 -205 15 -6 -3 -9 -63 -8 -47
0 -75 3 -62 5 22 4 22 5 22 204 0 199 0 199 -50 199 -41 0 -56 -5 -75 -25 -22
-21 -25 -22 -25 -5 0 45 1 45 200 45 190 0 190 0 190 -43z m720 -2 c-1 -45 -1
-45 -14 -14 -16 36 -37 44 -118 44 -58 0 -58 0 -58 -90 0 -90 0 -90 60 -90 46
0 61 4 69 18 8 13 10 6 10 -33 0 -40 -2 -45 -9 -27 -8 19 -16 22 -70 22 -60 0
-60 0 -60 -80 0 -100 15 -120 90 -120 60 0 91 13 113 48 19 31 24 10 7 -32
-10 -26 -10 -26 -177 -25 -93 1 -157 4 -143 8 41 11 44 392 3 406 -19 7 20 10
135 10 162 0 162 0 162 -45z m-2547 33 c-9 -3 -13 -32 -13 -94 0 -89 0 -89
105 -89 105 0 105 0 105 85 0 69 -3 86 -17 94 -14 8 1 10 57 10 56 0 71 -2 58
-10 -16 -9 -18 -30 -18 -199 0 -169 2 -190 18 -199 13 -8 -2 -10 -58 -10 -56
0 -71 2 -57 10 14 8 17 25 17 104 0 95 0 95 -105 95 -105 0 -105 0 -105 -99 0
-86 2 -100 18 -104 9 -3 -16 -5 -56 -6 -67 -1 -72 0 -58 15 13 13 16 45 16
194 0 149 -3 181 -16 194 -14 15 -9 16 53 15 37 0 62 -3 56 -6z m5498 -48 c38
-24 -5 -70 -73 -79 -152 -21 -143 32 -143 -796 0 -822 -6 -777 114 -800 31 -6
66 -13 77 -15 25 -6 37 -30 29 -56 -12 -38 -835 -28 -835 10 0 37 12 45 85 58
162 30 150 -36 150 798 0 829 11 766 -140 796 -85 17 -125 56 -91 90 7 6 816
0 827 -6z m1000 0 c43 -27 5 -64 -84 -81 -142 -27 -137 3 -137 -799 0 -796 -4
-769 128 -795 89 -17 104 -26 100 -58 -5 -43 -821 -43 -826 0 -4 32 11 41 101
58 130 26 127 6 127 795 0 789 3 769 -127 795 -99 19 -116 34 -98 82 5 13 794
16 816 3z m-4431 -630 c20 -24 795 -22 822 2 27 24 28 18 15 -120 -13 -145
-27 -162 -57 -68 -31 93 -51 105 -180 109 -110 4 -110 4 -110 -406 0 -454 0
-458 57 -467 73 -12 83 -15 83 -30 0 -13 -35 -15 -245 -15 -203 0 -245 2 -245
14 0 16 21 26 58 26 94 1 92 -9 92 470 0 410 0 410 -104 410 -129 0 -156 -15
-201 -108 -27 -56 -67 -86 -57 -41 4 15 27 142 37 202 6 40 15 46 35 22z
m-2627 -315 c226 -657 211 -623 271 -635 56 -11 66 -16 66 -31 0 -17 -424 -21
-435 -4 -6 10 21 25 68 34 37 9 35 41 -11 181 -37 110 -37 110 -177 112 -170
4 -156 12 -200 -126 -48 -153 -44 -171 33 -171 29 0 58 -21 45 -33 -15 -16
-783 -8 -783 8 0 8 11 17 25 20 14 3 36 7 50 10 39 8 45 40 45 233 0 256 -10
432 -25 432 -15 0 -271 -556 -328 -713 -18 -48 -49 -15 -94 98 -71 183 -277
635 -289 635 -23 0 -36 -619 -14 -660 6 -11 26 -22 48 -25 60 -11 72 -16 72
-31 0 -12 -30 -14 -175 -14 -145 0 -175 2 -175 14 0 14 8 18 62 30 58 13 65
58 89 543 16 312 4 353 -101 353 -13 0 -20 7 -20 20 0 19 7 20 165 20 165 0
165 0 165 -30 0 -70 273 -660 306 -660 15 0 238 481 277 598 31 92 31 92 191
90 171 -3 221 -21 116 -41 -97 -19 -93 1 -88 -442 6 -481 0 -460 145 -459 109
1 108 0 239 349 43 116 81 212 85 215 8 7 109 277 109 294 0 7 12 19 28 25 15
6 43 26 62 44 46 44 34 65 153 -283z m2355 298 c61 -15 71 -35 75 -155 3 -87
-14 -90 -58 -9 -83 155 -263 185 -330 56 -52 -101 5 -190 184 -285 393 -207
305 -601 -134 -600 -212 1 -252 29 -274 189 -17 119 7 139 52 43 108 -232 417
-254 417 -29 0 97 -56 166 -201 247 -422 238 -211 663 269 543z m2479 13 c189
-28 180 -19 185 -171 4 -102 -17 -123 -46 -47 -89 233 -440 232 -564 -1 -105
-196 -79 -489 55 -633 164 -176 428 -136 538 81 50 98 67 17 26 -119 -21 -69
-21 -69 -113 -92 -517 -132 -921 218 -757 656 89 237 365 371 676 326z m-4004
-17 c10 -11 -5 -34 -23 -34 -95 0 -94 6 -100 -485 -8 -518 -17 -562 -143 -670
-138 -118 -385 -107 -322 14 28 56 56 60 117 17 138 -95 148 -55 148 625 0
510 5 482 -85 496 -35 6 -51 13 -53 26 -3 17 444 28 461 11z m840 -76 c14
-171 2 -191 -48 -86 -46 96 -60 102 -226 106 -139 4 -139 4 -139 -187 0 -191
0 -191 108 -191 122 0 146 10 157 63 12 57 16 67 31 67 12 0 14 -28 14 -160 0
-135 -2 -160 -15 -160 -8 0 -17 12 -21 28 -20 91 -45 105 -184 100 -85 -3 -85
-3 -88 -169 -4 -245 2 -253 187 -253 154 0 192 23 264 154 30 56 49 25 31 -53
-40 -172 2 -157 -439 -157 -218 0 -396 4 -399 9 -10 15 17 28 69 35 85 11 80
-16 80 447 0 462 5 432 -77 446 -28 4 -38 10 -38 24 0 18 15 19 364 19 363 0
363 0 369 -82z m2327 63 c0 -14 -10 -20 -41 -24 -83 -11 -79 12 -79 -444 0
-434 0 -437 52 -448 58 -12 68 -16 68 -31 0 -12 -36 -14 -225 -14 -189 0 -225
2 -225 14 0 15 10 20 67 31 59 12 58 4 61 416 4 441 2 453 -61 470 -23 6 -48
13 -54 15 -7 2 -13 10 -13 19 0 13 30 15 225 15 213 0 225 -1 225 -19z" />
    <path d="M4566 2929 c-87 -69 -86 -293 3 -373 53 -48 154 -26 186 41 88 186
-55 437 -189 332z" />
    <path d="M2995 1968 c-31 -77 -85 -242 -85 -263 0 -30 16 -35 110 -35 130 0
127 -10 64 186 -48 153 -63 172 -89 112z" />
  </g>
  <g transform="translate(0.000000,1155.000000) scale(0.100000,-0.100000)" fill="#c8c9c9" stroke="none">
    <path d="M5320 10439 c-25 -12 -61 -27 -80 -34 -34 -13 -158 -64 -305 -127
-38 -16 -97 -40 -130 -53 -33 -13 -98 -40 -145 -60 -47 -20 -112 -47 -145 -60
-33 -13 -98 -40 -145 -60 -47 -20 -112 -47 -145 -60 -33 -13 -98 -40 -145 -60
-47 -20 -112 -47 -145 -60 -33 -13 -98 -40 -145 -60 -47 -20 -146 -61 -220
-92 -160 -66 -224 -92 -307 -127 -63 -26 -63 -26 -423 -26 -360 0 -360 0 -358
-1787 3 -1788 3 -1788 40 -1923 68 -247 249 -640 336 -729 9 -9 44 -53 76 -96
346 -465 841 -830 1452 -1071 243 -95 724 -398 896 -564 65 -63 55 -64 184 24
150 101 441 282 879 546 1037 625 1542 1147 1828 1890 96 251 87 45 87 1979 0
1702 0 1702 -267 1696 -148 -3 -292 -8 -321 -10 -52 -5 -71 2 -760 301 -829
359 -876 380 -1090 473 -89 39 -164 71 -166 71 -3 0 -37 15 -78 34 -165 76
-183 79 -258 45z m-76 -922 c23 -17 12 -41 -27 -58 -59 -26 -84 -226 -34 -276
30 -30 295 -33 322 -3 50 56 16 229 -55 280 -75 53 -27 71 179 68 181 -3 220
-17 161 -56 -74 -50 -70 -26 -70 -376 0 -352 -2 -340 51 -366 48 -25 57 -40
34 -57 -25 -18 -355 -19 -373 -1 -20 20 -13 38 22 55 76 36 108 278 43 327
-34 25 -295 38 -322 16 -49 -41 -13 -327 44 -345 25 -7 35 -34 20 -51 -19 -24
-330 -20 -359 4 -23 19 -23 19 11 42 61 42 59 27 59 376 0 322 0 322 -46 359
-43 36 -44 38 -28 56 22 24 336 29 368 6z m91 -1042 c0 -16 -6 -30 -12 -32 -9
-3 -13 7 -13 32 0 25 4 35 13 33 6 -3 12 -17 12 -33z m5 -265 c0 -29 -4 -40
-15 -40 -11 0 -15 11 -15 40 0 29 4 40 15 40 11 0 15 -11 15 -40z m-6 -148
c21 -35 17 -82 -8 -82 -20 0 -26 5 -26 23 0 49 19 83 34 59z m69 -179 c-46 -2
-120 -2 -165 0 -46 1 -9 3 82 3 91 0 128 -2 83 -3z m-1605 -85 c-4 -46 -28
-49 -28 -4 0 26 4 36 16 36 11 0 14 -8 12 -32z m3072 -3 c0 -19 -4 -35 -10
-35 -5 0 -10 16 -10 35 0 19 5 35 10 35 6 0 10 -16 10 -35z m-1422 -17 c8 -8
12 -59 12 -165 0 -153 0 -153 -140 -153 -140 0 -140 0 -140 145 0 193 -6 185
140 185 77 0 120 -4 128 -12z m-1649 -155 c1 -17 -5 -23 -19 -23 -23 0 -27 29
-8 63 13 25 26 6 27 -40z m3077 9 c6 -28 4 -32 -15 -32 -16 0 -21 6 -21 24 0
62 24 67 36 8z m56 -109 c-40 -2 -103 -2 -140 0 -37 2 -4 3 73 3 77 0 107 -2
67 -3z m-3044 -95 c8 -8 12 -53 12 -135 0 -123 0 -123 -120 -123 -120 0 -120
0 -120 123 0 151 -3 147 120 147 61 0 100 -4 108 -12z m3090 -126 c3 -133 3
-133 -115 -130 -118 3 -118 3 -121 122 -3 152 -7 147 127 144 106 -3 106 -3
109 -136z m-1464 33 c5 -13 -21 -15 -196 -15 -177 0 -199 2 -188 15 10 12 45
15 195 15 153 0 184 -2 189 -15z m-402 -92 c-87 -124 -172 -397 -172 -553 0
-70 0 -70 -165 -70 -91 0 -165 1 -165 3 0 85 151 355 268 479 113 120 298 231
234 141z m365 -21 c81 -119 137 -289 162 -490 15 -123 47 -112 -315 -112 -313
0 -313 0 -320 35 -17 94 31 272 130 481 65 134 65 134 188 134 123 0 123 0
155 -48z m106 32 c174 -89 447 -470 447 -625 0 -5 -66 -9 -159 -9 -158 0 -158
0 -165 95 -11 155 -63 329 -145 481 -43 80 -39 89 22 58z m1435 -191 c3 -10
-33 -13 -157 -13 -148 0 -174 4 -154 24 13 13 306 2 311 -11z m-3078 -3 c0 -6
-60 -10 -160 -10 -100 0 -160 4 -160 10 0 6 60 10 160 10 100 0 160 -4 160
-10z m-340 -80 c-75 -106 -170 -436 -144 -504 5 -14 -8 -16 -134 -16 -161 0
-152 -11 -98 120 42 102 103 196 178 276 105 110 255 204 198 124z m298 3 c33
-47 89 -165 105 -223 86 -304 88 -301 -219 -298 -269 3 -269 3 -272 37 -9 88
27 216 109 389 58 122 58 122 158 122 97 0 100 -1 119 -27z m128 -11 c132 -86
261 -257 324 -430 30 -82 30 -82 -110 -82 -140 0 -140 0 -140 68 0 121 -56
312 -125 426 -40 67 -30 70 51 18z m2639 -18 c-66 -109 -125 -312 -125 -429 0
-55 0 -55 -135 -55 -155 0 -149 -9 -93 122 69 164 180 302 313 391 67 45 79
36 40 -29z m332 4 c76 -126 121 -264 130 -405 6 -83 6 -83 -259 -83 -306 0
-285 -10 -266 124 12 91 35 157 102 300 55 116 55 116 158 116 104 0 104 0
135 -52z m107 22 c140 -89 271 -262 330 -438 25 -72 25 -72 -109 -72 -133 0
-133 0 -140 83 -11 131 -65 302 -131 414 -30 52 -18 56 50 13z m-2164 -444 c0
-14 -4 -28 -10 -31 -5 -3 -10 -17 -10 -31 0 -24 0 -24 -160 -24 -146 0 -160 2
-160 18 0 9 -3 34 -6 55 -7 37 -7 37 170 37 176 0 176 0 176 -24z m686 -13
c-3 -21 -6 -46 -6 -55 0 -17 -21 -18 -294 -18 -293 0 -293 0 -300 38 -13 79
-42 72 300 72 307 0 307 0 300 -37z m420 0 c-3 -21 -6 -46 -6 -55 0 -16 -14
-18 -155 -18 -141 0 -155 2 -155 18 0 9 -3 34 -6 55 -7 37 -7 37 161 37 168 0
168 0 161 -37z m494 -128 c0 -14 -4 -25 -10 -25 -5 0 -10 -11 -10 -25 0 -25 0
-25 -129 -25 -137 0 -140 2 -141 88 0 9 36 12 145 12 145 0 145 0 145 -25z
m-3090 3 c-1 -86 -4 -88 -140 -88 -136 0 -139 2 -140 88 0 9 35 12 140 12 105
0 140 -3 140 -12z m586 -19 c-3 -17 -6 -40 -6 -50 0 -18 -12 -19 -249 -19
-269 0 -260 -3 -261 88 0 9 59 12 261 12 262 0 262 0 255 -31z m354 19 c-1
-86 -4 -88 -140 -88 -136 0 -139 2 -140 88 0 9 35 12 140 12 105 0 140 -3 140
-12z m2726 -19 c-3 -17 -6 -38 -6 -45 0 -12 -44 -14 -245 -14 -201 0 -245 2
-245 14 0 7 -3 28 -6 45 -6 31 -6 31 251 31 258 0 258 0 251 -31z m350 0 c-3
-17 -6 -38 -6 -45 0 -11 -26 -14 -130 -14 -104 0 -130 3 -130 14 0 7 -3 28 -6
45 -6 31 -6 31 136 31 143 0 143 0 136 -31z m-1399 -31 c-1 -18 0 -185 1 -371
2 -338 2 -338 85 -335 82 3 82 3 85 311 2 307 2 307 627 307 625 0 625 0 625
-310 0 -310 0 -310 53 -310 69 0 79 -8 75 -56 -5 -62 -4581 -62 -4586 0 -4 47
7 56 71 56 47 0 47 0 47 305 0 305 0 305 154 305 145 0 154 -1 149 -19 -2 -10
3 -25 11 -34 14 -13 16 -50 16 -256 0 -241 0 -241 35 -241 35 0 35 0 35 249 0
156 4 252 10 256 6 3 10 15 10 26 0 18 9 19 215 19 215 0 215 0 215 -24 0 -14
5 -28 10 -31 6 -4 10 -98 10 -251 0 -244 0 -244 35 -244 35 0 35 0 35 235 0
334 -10 315 172 315 148 0 148 0 148 -305 0 -305 0 -305 85 -305 85 0 85 0 85
370 0 370 0 370 744 370 743 0 743 0 743 -32z m-946 -925 c22 -22 146 -287
226 -480 21 -52 61 16 199 337 78 182 62 170 210 170 68 0 125 -4 128 -8 8
-14 -8 -29 -46 -45 -53 -22 -55 -41 -49 -383 6 -324 10 -344 61 -344 28 0 45
-27 30 -45 -14 -17 -313 -22 -339 -6 -19 12 -7 39 24 51 39 15 45 47 45 249 0
342 -14 342 -155 -2 -154 -373 -144 -374 -297 15 -123 311 -132 319 -141 136
-16 -297 -12 -337 39 -389 63 -64 47 -72 -116 -68 -140 5 -146 8 -91 55 66 57
68 63 91 376 23 317 21 330 -34 353 -89 37 -35 67 108 60 71 -3 82 -6 107 -32z" />
    <path d="M4940 6346 c0 -14 5 -28 10 -31 6 -4 10 -115 10 -301 0 -294 0 -294
40 -294 40 0 40 0 40 294 0 252 2 295 15 300 49 18 16 56 -50 56 -62 0 -65 -1
-65 -24z" />
    <path d="M5573 6353 c-4 -10 2 -23 15 -34 22 -17 22 -22 22 -308 0 -291 0
-291 40 -291 40 0 40 0 40 292 0 255 2 294 16 309 30 34 11 49 -61 49 -52 0
-67 -3 -72 -17z" />
    <path d="M6530 6236 c0 -8 7 -21 15 -30 13 -12 15 -55 15 -260 0 -246 0 -246
35 -246 35 0 35 0 35 249 0 209 2 251 15 261 33 27 17 40 -50 40 -50 0 -65 -3
-65 -14z" />
    <path d="M7080 6231 c0 -11 5 -23 10 -26 6 -4 10 -100 10 -256 0 -249 0 -249
35 -249 35 0 35 0 35 249 0 156 4 252 10 256 33 21 9 45 -45 45 -48 0 -55 -3
-55 -19z" />
  </g>
  <g transform="translate(0.000000,1155.000000) scale(0.100000,-0.100000)" fill="#000000" stroke="none">
    <path d="M4861 9516 c-22 -24 -22 -24 28 -66 51 -43 51 -43 51 -355 0 -336 2
-323 -57 -364 -39 -26 -41 -44 -11 -65 37 -26 358 -23 382 3 20 22 6 56 -26
67 -56 17 -91 284 -43 324 27 22 268 9 302 -16 64 -48 32 -272 -43 -307 -36
-18 -46 -51 -22 -75 15 -15 360 -17 389 -2 29 16 24 48 -13 68 -72 39 -68 18
-68 363 0 311 0 311 31 340 17 16 35 29 40 29 21 0 31 42 13 61 -22 24 -355
29 -386 5 -27 -20 -22 -52 12 -76 70 -50 103 -207 55 -260 -27 -29 -272 -27
-302 3 -49 49 -25 230 35 256 40 18 54 58 27 78 -38 27 -367 18 -394 -11z" />
    <path d="M4894 5461 c-65 -17 -64 -48 1 -76 55 -22 56 -35 35 -337 -23 -308
-24 -312 -94 -373 -69 -61 -59 -69 100 -74 190 -5 211 8 134 84 -50 49 -50 49
-50 151 0 137 12 344 19 344 4 0 53 -117 109 -259 159 -401 157 -401 316 -15
133 322 136 323 136 13 0 -191 -6 -224 -44 -239 -37 -14 -53 -50 -30 -67 31
-22 346 -18 367 5 20 22 -1 62 -32 62 -52 0 -56 21 -62 334 -6 335 -4 352 52
374 37 14 57 41 44 62 -4 6 -60 10 -139 10 -159 0 -142 13 -220 -170 -126
-294 -166 -369 -179 -337 -80 195 -204 458 -226 481 -31 31 -164 46 -237 27z" />
    <path d="M5236 2953 c-21 -109 -14 -137 19 -73 19 36 43 50 89 50 54 0 57
-370 4 -385 -59 -18 -30 -26 84 -26 114 0 146 10 86 27 -56 16 -56 384 0 384
45 0 77 -20 86 -55 12 -45 31 -22 36 44 5 59 4 62 -15 54 -27 -10 -346 -10
-367 0 -13 7 -17 2 -22 -20z" />
    <path d="M6772 2968 c3 -7 15 -15 29 -18 51 -12 39 -390 -12 -390 -11 0 -19
-7 -19 -15 0 -13 26 -15 176 -15 190 0 204 7 204 95 0 30 -26 34 -35 5 -16
-51 -137 -84 -173 -48 -27 27 -16 357 13 368 52 20 25 30 -81 30 -79 0 -105
-3 -102 -12z" />
    <path d="M3644 2961 c-10 -10 -2 -21 16 -21 34 0 40 -32 40 -204 0 -171 -6
-196 -46 -196 -8 0 -14 -4 -14 -10 0 -6 40 -10 100 -10 55 0 103 0 107 -1 24
-2 9 20 -16 26 -31 7 -31 7 -31 96 0 89 0 89 95 89 95 0 95 0 95 -85 0 -81 -1
-86 -25 -97 -50 -23 -27 -33 75 -33 99 0 124 10 78 30 -38 17 -41 370 -3 387
51 23 28 33 -75 32 -113 -1 -125 -6 -81 -29 30 -15 31 -17 31 -90 0 -75 0 -75
-95 -75 -95 0 -95 0 -95 80 0 77 1 80 25 86 53 13 16 26 -79 28 -54 0 -100 -1
-102 -3z" />
    <path d="M4545 2957 c-187 -85 -191 -356 -6 -433 214 -89 421 136 309 338 -50
91 -204 139 -303 95z m160 -48 c100 -88 79 -344 -29 -364 -88 -17 -151 52
-163 178 -15 167 93 272 192 186z" />
    <path d="M6020 2953 c0 -7 11 -15 25 -19 37 -9 35 -377 -2 -382 -12 -2 -27
-10 -33 -18 -11 -12 13 -14 174 -14 209 0 193 -6 209 78 8 42 -15 44 -39 3
-61 -103 -184 -63 -184 59 0 70 0 70 51 70 47 0 51 -2 60 -30 17 -48 29 -35
31 35 0 36 1 70 2 77 2 25 -20 17 -31 -12 -10 -28 -15 -30 -62 -30 -51 0 -51
0 -51 80 0 80 0 80 49 80 68 0 97 -13 109 -49 17 -49 32 -37 32 27 0 57 0 57
-170 57 -128 0 -170 -3 -170 -12z" />
    <path d="M8465 2902 c-23 -60 -3 -83 90 -101 151 -30 140 32 140 -786 0 -822
12 -758 -150 -788 -77 -14 -87 -21 -83 -69 3 -39 3 -39 423 -39 393 0 420 1
427 18 21 53 6 69 -80 88 -148 31 -137 -34 -137 790 0 824 -11 759 137 790 40
9 76 21 80 28 11 17 10 65 -2 72 -22 13 -840 10 -845 -3z" />
    <path d="M9475 2902 c-23 -62 -3 -83 97 -102 132 -24 128 3 128 -785 0 -788 4
-761 -128 -785 -88 -17 -102 -25 -102 -60 0 -58 -24 -55 421 -53 442 2 429 1
429 41 0 43 -13 53 -86 68 -150 31 -142 -9 -143 781 -1 800 -6 770 136 797 39
7 75 16 82 20 13 9 15 72 1 81 -22 13 -830 10 -835 -3z" />
    <path d="M5825 2253 c-4 -21 -13 -74 -22 -118 -22 -117 -22 -120 7 -123 22 -2
29 5 55 60 44 91 73 108 191 108 94 0 94 0 94 -400 0 -468 2 -459 -92 -460
-42 0 -58 -10 -58 -36 0 -24 0 -24 255 -24 255 0 255 0 255 24 0 27 -16 36
-66 36 -76 0 -74 -11 -74 451 0 411 0 411 100 407 117 -4 140 -18 169 -109 32
-97 66 -84 75 28 3 48 9 112 13 141 6 57 -10 70 -47 37 -15 -13 -71 -15 -400
-15 -329 0 -385 2 -400 15 -29 26 -49 18 -55 -22z" />
    <path d="M3080 2244 c-19 -18 -47 -39 -62 -45 -16 -6 -28 -18 -28 -25 0 -17
-101 -287 -109 -294 -4 -3 -22 -45 -40 -95 -158 -433 -179 -469 -274 -469
-134 0 -129 -17 -135 449 -5 432 -9 413 88 432 39 7 45 12 45 33 0 25 0 25
-171 27 -172 2 -172 2 -198 -81 -14 -45 -80 -200 -147 -344 -143 -307 -109
-310 -267 23 -118 248 -152 333 -152 375 0 29 0 29 -172 29 -112 0 -175 -4
-179 -10 -11 -19 2 -49 22 -49 115 0 122 -45 89 -550 -21 -309 -21 -313 -95
-331 -38 -10 -45 -15 -45 -35 0 -24 0 -24 185 -24 185 0 185 0 185 24 0 26 -7
30 -72 41 -57 9 -59 17 -56 297 4 421 -8 414 135 95 67 -149 139 -315 159
-367 39 -102 46 -112 82 -108 20 3 31 21 71 118 48 116 228 515 261 580 18 34
18 34 25 -140 16 -395 5 -480 -63 -480 -37 0 -61 -17 -55 -40 7 -27 799 -32
809 -5 9 23 -15 45 -50 45 -71 0 -74 13 -32 146 44 143 32 135 191 132 130 -3
130 -3 167 -113 46 -137 47 -153 11 -161 -53 -11 -75 -24 -71 -42 6 -32 458
-31 458 2 0 25 -6 29 -66 41 -56 11 -98 116 -347 855 -36 108 -46 114 -97 64z
m-4 -400 c54 -170 56 -164 -56 -164 -112 0 -112 -1 -67 132 42 124 64 178 71
178 2 0 26 -66 52 -146z" />
    <path d="M5312 2264 c-303 -81 -299 -397 8 -569 148 -83 210 -163 197 -257
-27 -198 -301 -153 -397 65 -63 142 -107 -32 -45 -179 45 -109 408 -112 544
-4 194 153 129 403 -140 545 -180 95 -236 180 -179 272 72 118 224 87 305 -63
64 -118 109 -27 66 132 -16 61 -223 95 -359 58z" />
    <path d="M7800 2265 c-259 -58 -405 -207 -441 -449 -60 -402 338 -671 809
-547 93 25 93 25 114 94 47 156 13 255 -47 137 -108 -213 -355 -254 -515 -84
-138 146 -163 438 -54 625 130 221 454 219 539 -4 19 -50 35 -62 59 -44 15 11
10 226 -5 241 -32 33 -356 54 -459 31z" />
    <path d="M3602 2232 c3 -24 8 -28 53 -35 90 -14 85 12 85 -486 0 -657 -9 -699
-126 -616 -72 51 -131 36 -150 -39 -40 -160 298 -113 415 58 72 104 75 124 81
601 6 491 5 485 101 485 18 0 35 33 24 49 -3 6 -103 10 -246 10 -240 0 -240 0
-237 -27z" />
    <path d="M4166 2245 c-10 -27 4 -42 52 -51 74 -14 72 -4 69 -446 -2 -439 3
-414 -85 -425 -55 -6 -78 -23 -68 -48 5 -13 58 -15 410 -15 455 0 410 -16 451
164 24 104 -19 136 -64 48 -57 -112 -101 -136 -243 -136 -172 1 -180 12 -176
243 3 156 3 156 87 159 123 4 145 -9 166 -101 5 -23 10 -28 31 -25 40 5 41
331 1 336 -26 3 -29 -1 -42 -65 -10 -52 -36 -63 -147 -63 -98 0 -98 0 -98 181
0 181 0 181 129 177 155 -4 171 -11 216 -106 25 -53 33 -62 53 -60 28 4 26 -9
17 130 -7 117 -7 117 -380 117 -321 1 -374 -1 -379 -14z" />
    <path d="M6780 2234 c0 -13 6 -26 13 -28 6 -2 31 -9 54 -15 63 -17 65 -30 61
-460 -3 -401 -2 -394 -61 -406 -61 -12 -67 -16 -67 -41 0 -24 0 -24 235 -24
235 0 235 0 235 24 0 25 -6 29 -68 41 -52 11 -52 15 -52 438 0 445 -4 423 79
434 37 5 41 8 41 34 0 28 0 28 -235 28 -235 0 -235 0 -235 -25z" />
  </g>
  <g transform="translate(0.000000,1155.000000) scale(0.100000,-0.100000)" fill="#1c1c1a" stroke="none">
    <path d="M5304 8424 c3 -53 8 -99 11 -102 8 -8 16 4 19 30 1 13 5 28 8 34 4 5
3 16 -2 24 -5 9 -5 19 1 27 20 23 6 78 -20 81 -23 4 -23 4 -17 -94z" />
    <path d="M5300 8210 c0 -47 2 -50 25 -50 23 0 25 3 25 50 0 47 -2 50 -25 50
-23 0 -25 -3 -25 -50z" />
    <path d="M5300 8064 c-23 -60 -14 -94 26 -94 37 0 37 0 30 46 -9 72 -38 96
-56 48z" />
    <path d="M3765 8048 c-7 -18 1 -148 10 -156 13 -14 22 23 21 90 -1 68 -17 102
-31 66z" />
    <path d="M5226 8038 c-16 -23 -22 -68 -8 -68 8 0 35 80 28 87 -2 2 -11 -6 -20
-19z" />
    <path d="M6846 8052 c-8 -13 -4 -139 5 -154 15 -23 22 2 23 78 1 72 -11 103
-28 76z" />
    <path d="M5400 8036 c0 -8 5 -18 10 -21 6 -3 10 -15 10 -26 0 -10 5 -19 10
-19 13 0 13 23 -2 55 -12 27 -28 33 -28 11z" />
    <path d="M5150 7885 c0 -13 26 -15 170 -15 144 0 170 2 170 15 0 13 -26 15
-170 15 -144 0 -170 -2 -170 -15z" />
    <path d="M3760 7794 c0 -41 2 -45 23 -42 36 5 39 88 3 88 -24 0 -26 -3 -26
-46z" />
    <path d="M6840 7795 c0 -38 3 -45 20 -45 17 0 20 7 20 45 0 38 -3 45 -20 45
-17 0 -20 -7 -20 -45z" />
    <path d="M5182 7780 c-8 -13 -12 -69 -12 -175 0 -155 0 -155 150 -155 150 0
150 0 150 163 0 113 -4 167 -12 175 -23 23 -261 16 -276 -8z" />
    <path d="M3760 7671 c-22 -43 -13 -81 20 -81 26 0 30 4 30 28 0 66 -27 95 -50
53z" />
    <path d="M6836 7674 c-18 -46 -7 -84 24 -84 25 0 30 4 30 24 0 58 -38 101 -54
60z" />
    <path d="M3840 7658 c0 -9 5 -20 10 -23 6 -3 10 -15 10 -26 0 -10 5 -19 10
-19 17 0 11 36 -10 61 -16 20 -19 21 -20 7z" />
    <path d="M3690 7641 c-13 -25 -13 -51 0 -51 6 0 10 9 10 19 0 11 5 23 10 26 6
3 10 10 10 16 0 16 -19 10 -30 -10z" />
    <path d="M6770 7641 c-5 -11 -10 -27 -10 -35 0 -28 15 -17 26 19 12 37 1 48
-16 16z" />
    <path d="M6920 7651 c0 -6 5 -13 10 -16 6 -3 10 -16 10 -28 0 -16 3 -18 12 -9
9 9 8 17 -2 37 -13 25 -30 34 -30 16z" />
    <path d="M6720 7525 c0 -13 23 -15 145 -15 122 0 145 2 145 15 0 13 -23 15
-145 15 -122 0 -145 -2 -145 -15z" />
    <path d="M3630 7520 c0 -6 57 -10 150 -10 93 0 150 4 150 10 0 6 -57 10 -150
10 -93 0 -150 -4 -150 -10z" />
    <path d="M3662 7438 c-8 -8 -12 -55 -12 -145 0 -133 0 -133 130 -133 130 0
130 0 130 133 0 164 6 157 -130 157 -69 0 -110 -4 -118 -12z" />
    <path d="M6741 7436 c-8 -9 -11 -55 -9 -142 3 -129 3 -129 131 -132 128 -3
128 -3 125 140 -3 143 -3 143 -119 146 -91 2 -119 0 -128 -12z" />
    <path d="M5122 7348 c-35 -35 -17 -38 198 -38 121 0 210 4 210 9 0 40 -6 41
-204 41 -136 0 -196 -4 -204 -12z" />
    <path d="M5004 7231 c-164 -115 -309 -315 -380 -525 -36 -104 -48 -96 151 -96
175 0 175 0 175 70 0 161 81 417 181 568 37 56 -38 46 -127 -17z" />
    <path d="M5124 7146 c-101 -214 -149 -396 -130 -499 9 -48 648 -61 660 -13 18
74 -39 338 -105 486 -70 155 -78 160 -227 160 -133 0 -133 0 -198 -134z" />
    <path d="M5513 7248 c93 -123 179 -388 181 -555 1 -83 1 -83 178 -83 196 0
190 -7 126 155 -100 254 -340 515 -473 515 -36 0 -36 0 -12 -32z" />
    <path d="M6697 7083 c-37 -36 -10 -43 162 -43 171 0 196 5 171 35 -13 16 -319
23 -333 8z" />
    <path d="M3606 7064 c-3 -9 -6 -18 -6 -20 0 -2 81 -4 179 -4 174 0 179 1 174
20 -7 28 -336 31 -347 4z" />
    <path d="M3522 6980 c-126 -84 -244 -236 -311 -396 -58 -142 -65 -134 109
-134 151 0 151 0 148 33 -10 129 62 366 153 505 32 49 -19 45 -99 -8z" />
    <path d="M3611 6898 c-84 -178 -116 -296 -109 -398 3 -45 3 -45 282 -48 318
-3 319 -1 229 318 -16 58 -72 176 -105 223 -19 27 -21 27 -129 27 -110 0 -110
0 -168 -122z" />
    <path d="M3920 7014 c0 -3 11 -20 25 -38 67 -88 134 -291 142 -428 6 -98 6
-98 154 -98 172 0 162 -10 115 111 -65 172 -190 336 -320 421 -51 33 -116 51
-116 32z" />
    <path d="M6615 6993 c-134 -89 -243 -226 -315 -393 -60 -143 -63 -140 102
-140 145 0 145 0 151 88 9 136 74 330 147 440 29 43 -23 47 -85 5z" />
    <path d="M6694 6904 c-68 -145 -90 -208 -103 -306 -20 -148 -40 -138 277 -138
275 0 275 0 269 93 -9 148 -51 285 -130 415 -31 52 -31 52 -145 52 -113 0
-113 0 -168 -116z" />
    <path d="M7026 6985 c65 -86 140 -308 148 -441 5 -79 5 -79 150 -82 80 -1 146
1 146 6 0 91 -142 336 -258 444 -109 102 -251 157 -186 73z" />
    <path d="M4580 6551 c0 -120 -57 -111 740 -111 727 0 727 0 734 46 12 92 28
84 -170 84 -177 0 -177 0 -170 -55 6 -55 6 -55 -39 -55 -45 0 -45 0 -39 55 7
55 7 55 -311 55 -318 0 -318 0 -312 -55 6 -55 6 -55 -39 -55 -43 0 -61 18 -34
35 6 3 10 22 10 41 0 34 0 34 -185 34 -174 0 -185 -1 -185 -19z" />
    <path d="M6242 6370 c3 -60 3 -60 626 -60 408 0 622 3 622 10 0 6 -4 10 -10
10 -6 0 -7 18 -3 45 6 45 6 45 -147 45 -153 0 -153 0 -147 -45 7 -45 7 -45
-28 -45 -35 0 -35 0 -28 45 6 45 6 45 -262 45 -268 0 -268 0 -262 -45 7 -45 7
-45 -33 -45 -29 0 -40 4 -40 15 0 8 5 15 10 15 6 0 10 16 10 35 0 35 0 35
-155 35 -155 0 -155 0 -153 -60z" />
    <path d="M3162 6360 c3 -60 3 -60 618 -60 615 0 615 0 618 60 2 60 2 60 -149
60 -152 0 -152 0 -146 -50 6 -50 6 -50 -29 -50 -35 0 -35 0 -28 50 7 50 7 50
-266 50 -273 0 -273 0 -267 -50 6 -50 6 -50 -28 -50 -34 0 -34 0 -28 50 6 50
6 50 -146 50 -151 0 -151 0 -149 -60z" />
    <path d="M4570 6020 c0 -370 0 -370 -75 -370 -75 0 -75 0 -75 305 0 305 0 305
-640 305 -640 0 -640 0 -640 -305 0 -305 0 -305 -47 -305 -27 0 -53 -4 -60 -8
-14 -9 -20 -89 -7 -102 7 -7 764 -9 2305 -8 2294 3 2294 3 2297 52 4 59 -4 66
-75 66 -53 0 -53 0 -53 310 0 310 0 310 -635 310 -635 0 -635 0 -637 -307 -3
-308 -3 -308 -75 -311 -73 -3 -73 -3 -75 335 -1 186 -1 353 1 371 2 32 2 32
-754 32 -755 0 -755 0 -755 -370z m490 325 c0 -9 -7 -18 -15 -21 -13 -5 -15
-48 -15 -300 0 -294 0 -294 -30 -294 -30 0 -30 0 -30 294 0 186 -4 297 -10
301 -30 18 -8 35 45 35 43 0 55 -3 55 -15z m644 6 c3 -5 -1 -14 -9 -21 -13
-11 -15 -58 -15 -306 0 -294 0 -294 -30 -294 -30 0 -30 0 -30 293 0 283 -1
293 -20 305 -12 7 -18 17 -15 22 8 12 112 13 119 1z m-2144 -120 c0 -6 -4 -13
-10 -16 -6 -4 -10 -100 -10 -256 0 -249 0 -249 -25 -249 -25 0 -25 0 -25 241
0 201 -2 243 -15 256 -8 8 -13 19 -10 24 8 12 95 12 95 0z m534 -8 c-5 -10
-10 -129 -12 -265 -3 -248 -3 -248 -27 -248 -25 0 -25 0 -25 244 0 153 -4 247
-10 251 -27 17 -9 35 36 35 41 0 45 -2 38 -17z m2543 -1 c-15 -16 -17 -50 -17
-265 0 -247 0 -247 -25 -247 -25 0 -25 0 -25 250 0 140 -4 250 -9 250 -5 0
-11 7 -15 15 -4 12 5 15 51 15 54 0 55 -1 40 -18z m543 9 c0 -6 -4 -13 -10
-16 -6 -4 -10 -100 -10 -256 0 -249 0 -249 -25 -249 -25 0 -25 0 -25 249 0
156 -4 252 -10 256 -23 14 -7 25 35 25 25 0 45 -4 45 -9z" />
  </g>
  <g transform="translate(0.000000,1155.000000) scale(0.100000,-0.100000)" fill="#dcad53" stroke="none">
    <path d="M8083 9603 c-153 -4 -153 -4 -153 -32 0 -16 -3 -37 -6 -46 -6 -16 6
-16 160 -10 166 8 166 8 166 -1685 0 -1694 0 -1694 -22 -1774 -44 -166 -163
-439 -266 -610 -36 -60 -51 -186 -23 -186 28 0 224 367 300 560 110 278 101
90 101 2056 0 1734 0 1734 -52 1732 -29 -1 -122 -4 -205 -5z" />
    <path d="M7830 5126 c0 -8 -7 -16 -15 -20 -8 -3 -15 -13 -15 -21 0 -21 14 -12
40 25 18 25 19 30 6 30 -9 0 -16 -6 -16 -14z" />
  </g>
  <g transform="translate(0.000000,1155.000000) scale(0.100000,-0.100000)" fill="#9f7b00" stroke="none">
    <path d="M2403 7818 c2 -1823 2 -1823 26 -1910 30 -117 41 -111 41 22 0 67 4
110 10 110 6 0 10 9 10 20 0 11 -4 20 -10 20 -7 0 -10 600 -10 1780 0 1780 0
1780 -35 1780 -35 0 -35 0 -32 -1822z" />
    <path d="M2525 5813 c8 -32 13 -39 21 -30 10 9 -5 57 -17 57 -7 0 -9 -10 -4
-27z" />
  </g>
  <g transform="translate(0.000000,1155.000000) scale(0.100000,-0.100000)" fill="#a07b01" stroke="none">
    <path d="M2400 9632 c0 -5 14 -7 30 -4 30 4 30 4 30 -1920 0 -1925 0 -1925 35
-2026 59 -170 177 -422 197 -422 4 0 8 24 9 53 0 45 2 49 11 30 6 -13 17 -23
24 -23 8 0 -5 36 -36 99 -28 54 -50 104 -50 110 0 6 -5 11 -12 11 -6 0 -9 3
-5 6 7 8 -23 86 -37 96 -6 4 -8 8 -4 8 6 0 -1 24 -40 130 -3 8 -4 21 -3 28 1
6 -3 12 -8 12 -6 0 -8 6 -5 14 3 8 1 17 -5 20 -6 4 -8 13 -5 20 3 8 1 17 -5
20 -6 4 -8 13 -5 20 3 8 1 17 -5 20 -6 4 -8 13 -4 21 3 9 0 21 -6 29 -6 7 -9
21 -5 30 3 9 2 22 -2 29 -5 6 -8 793 -6 1760 2 1747 2 1747 107 1747 105 0
105 0 105 45 0 45 0 45 -150 45 -82 0 -150 -4 -150 -8z" />
  </g>
  <g transform="translate(0.000000,1155.000000) scale(0.100000,-0.100000)" fill="#a48007" stroke="none">
    <path d="M2633 9633 c59 -4 59 -4 55 -44 -4 -39 -4 -39 234 -39 238 0 238 0
238 45 0 45 0 45 -292 43 -161 -1 -267 -3 -235 -5z" />
    <path d="M3303 9613 c-7 -2 -13 -11 -13 -19 0 -11 5 -11 25 -2 39 18 28 38
-12 21z" />
    <path d="M2482 7813 c2 -962 4 -1464 5 -1118 7 1674 7 2865 1 2865 -5 0 -7
-786 -6 -1747z" />
    <path d="M2688 5333 c-3 -71 -1 -80 29 -130 55 -90 135 -206 164 -238 15 -16
64 -73 107 -125 148 -176 172 -194 172 -127 0 57 0 57 -83 155 -46 54 -98 119
-117 145 -18 26 -37 47 -42 47 -4 0 -8 6 -8 13 0 7 -13 27 -29 45 -17 17 -38
45 -48 62 -9 16 -21 30 -26 30 -4 0 -6 4 -3 8 3 5 -4 19 -15 30 -11 12 -17 22
-14 22 3 0 -2 14 -12 30 -9 17 -21 30 -26 30 -4 0 -5 5 -2 10 3 6 1 10 -6 10
-7 0 -10 3 -6 6 3 4 -1 13 -9 21 -8 8 -12 19 -9 24 4 5 2 9 -4 9 -5 0 -11 -34
-13 -77z" />
  </g>
  <g transform="translate(0.000000,1155.000000) scale(0.100000,-0.100000)" fill="#d6a94b" stroke="none">
    <path d="M7350 9691 c0 -5 9 -13 20 -16 15 -5 20 -15 20 -44 0 -50 186 -138
270 -127 25 3 99 6 165 7 120 1 120 1 120 45 0 51 14 49 -200 35 -114 -8 -122
-7 -167 16 -27 13 -51 24 -55 25 -5 0 -35 13 -69 28 -80 36 -104 43 -104 31z" />
    <path d="M7880 5317 c-24 -40 -50 -79 -57 -87 -6 -8 -50 -64 -97 -125 -46 -60
-141 -171 -210 -245 -120 -129 -125 -137 -126 -178 0 -32 -6 -48 -21 -61 -12
-10 -20 -23 -18 -29 6 -18 240 214 349 347 19 23 44 52 55 65 11 13 27 34 35
46 8 13 23 32 33 42 9 10 17 23 17 28 0 6 5 10 10 10 6 0 14 8 17 18 4 9 11
22 15 27 62 76 63 79 60 148 -5 83 -7 83 -62 -6z" />
  </g>
  <g transform="translate(0.000000,1155.000000) scale(0.100000,-0.100000)" fill="#be952a" stroke="none">
    <path d="M5235 10483 c-171 -70 -177 -73 -157 -80 6 -3 12 -21 12 -40 0 -24 4
-34 13 -30 6 3 62 26 122 52 187 80 176 81 365 -11 54 -26 50 -29 42 30 -7 49
-7 49 -117 98 -131 58 -89 60 -280 -19z" />
    <path d="M5510 3460 c-90 -61 -165 -110 -165 -110 -1 0 -24 22 -51 48 -56 54
-182 152 -195 152 -5 0 -9 -15 -9 -34 0 -19 -5 -36 -11 -38 -7 -2 8 -19 32
-38 119 -92 159 -132 169 -170 14 -53 80 -67 93 -20 3 10 61 56 131 102 124
82 126 83 126 121 0 37 18 67 39 67 6 0 11 7 11 15 0 20 17 29 -170 -95z" />
  </g>
  <g transform="translate(0.000000,1155.000000) scale(0.100000,-0.100000)" fill="#b38c1c" stroke="none">
    <path d="M4348 10117 c-268 -112 -268 -112 -268 -160 0 -47 0 -47 38 -31 20 9
69 29 107 45 39 15 108 44 155 64 47 20 120 50 163 66 77 30 77 30 77 80 0 27
-1 49 -2 48 -2 0 -123 -51 -270 -112z" />
    <path d="M3180 4739 c0 -19 45 -62 60 -57 6 2 -5 19 -25 38 -23 22 -35 29 -35
19z" />
    <path d="M4080 4055 c0 -51 7 -56 245 -155 11 -4 36 -15 55 -23 19 -8 62 -25
95 -38 33 -13 75 -34 94 -46 45 -31 51 -29 51 12 0 21 5 35 12 35 41 0 -60 55
-202 111 -141 55 -236 95 -291 125 -60 31 -59 32 -59 -21z" />
  </g>
  <g transform="translate(0.000000,1155.000000) scale(0.100000,-0.100000)" fill="#c39932" stroke="none">
    <path d="M5615 10410 c0 -26 3 -46 8 -43 4 2 7 0 7 -5 0 -8 19 -17 60 -27 3 0
20 -9 38 -18 17 -10 32 -15 32 -12 0 3 20 -6 43 -20 24 -14 47 -22 50 -18 4 3
7 2 7 -4 0 -10 46 -28 63 -25 4 1 7 -2 7 -7 0 -5 12 -12 28 -17 15 -4 29 -8
32 -9 11 -4 125 -57 152 -71 24 -13 28 -13 28 0 0 8 -9 18 -20 21 -15 5 -20
15 -20 43 0 37 0 37 -253 146 -138 60 -254 110 -257 112 -3 1 -5 -20 -5 -46z" />
    <path d="M6035 3789 c-60 -37 -115 -71 -120 -76 -6 -4 -26 -17 -45 -27 -19
-11 -37 -22 -40 -25 -3 -3 -21 -15 -40 -25 -19 -11 -37 -22 -40 -25 -3 -4 -22
-15 -42 -26 -21 -11 -38 -23 -38 -27 0 -5 -7 -8 -15 -8 -8 0 -15 -4 -15 -10 0
-5 -6 -10 -12 -10 -9 0 -12 -15 -10 -49 4 -50 4 -50 90 5 48 30 162 100 254
157 167 102 167 102 168 144 0 23 5 43 12 45 6 2 9 9 7 14 -2 6 -53 -20 -114
-57z" />
  </g>
  <g transform="translate(0.000000,1155.000000) scale(0.100000,-0.100000)" fill="#b99023" stroke="none">
    <path d="M5050 10403 c-11 -8 -20 -11 -20 -7 0 3 -11 -1 -25 -10 -14 -9 -25
-14 -25 -10 0 3 -16 -4 -35 -16 -19 -12 -35 -19 -35 -15 0 3 -10 0 -22 -7 -13
-7 -25 -13 -28 -13 -8 -1 -124 -48 -145 -59 -11 -6 -22 -11 -25 -11 -59 -9
-80 -30 -80 -77 0 -47 1 -48 23 -36 12 6 31 13 42 15 10 2 23 9 27 16 4 6 8 8
8 3 0 -4 12 -1 26 9 14 9 38 19 52 21 15 3 29 8 32 12 3 4 14 9 25 10 11 2 23
9 27 15 4 7 8 8 8 3 0 -4 12 -1 26 9 14 9 38 19 52 21 15 3 29 10 33 15 3 6 9
10 13 9 9 -2 126 42 126 47 0 3 -7 3 -15 -1 -12 -4 -15 3 -15 33 0 41 -15 48
-50 24z" />
    <path d="M4609 3823 c-2 -29 0 -55 6 -58 6 -2 28 -16 50 -30 22 -14 47 -28 55
-32 8 -3 29 -17 46 -30 17 -13 34 -23 38 -23 4 0 42 -25 85 -55 43 -30 82 -55
86 -55 3 0 12 -6 20 -12 22 -22 67 -53 85 -60 29 -11 33 80 5 94 -11 6 -22 14
-25 18 -9 13 -237 160 -249 160 -6 0 -11 4 -11 10 0 5 -11 12 -25 16 -14 3
-25 9 -25 13 0 3 -17 15 -37 26 -21 11 -44 26 -51 32 -7 7 -19 13 -27 13 -7 0
-15 6 -18 13 -2 6 -6 -12 -8 -40z" />
  </g>
  <g transform="translate(0.000000,1155.000000) scale(0.100000,-0.100000)" fill="#a9830e" stroke="none">
    <path d="M3565 9791 c-28 -10 -60 -23 -73 -29 -52 -27 -62 -32 -72 -32 -5 0
-33 -11 -62 -24 -123 -55 -161 -66 -237 -68 -64 -1 -67 -2 -23 -5 54 -4 54 -4
50 -44 -4 -39 -4 -39 34 -39 20 0 40 5 43 10 4 6 11 8 16 5 5 -4 9 -2 9 2 0 5
10 10 22 10 13 1 24 7 26 13 2 5 8 8 13 4 5 -3 9 0 9 7 0 7 3 9 7 6 3 -4 12
-2 19 4 7 5 25 12 40 15 16 3 32 11 36 17 4 7 8 9 8 4 0 -4 15 0 33 10 17 9
41 18 52 20 10 2 22 7 25 11 3 4 12 8 20 10 59 11 86 64 56 109 -1 1 -24 -6
-51 -16z" />
    <path d="M3150 4723 c0 -65 39 -112 215 -257 97 -80 106 -87 140 -110 16 -12
46 -33 66 -48 47 -37 49 -36 49 22 0 43 -4 52 -27 67 -16 10 -33 22 -40 28 -6
5 -26 21 -44 35 -79 60 -229 190 -291 253 -68 69 -68 69 -68 10z" />
    <path d="M3660 4336 c0 -9 6 -16 14 -16 8 0 16 -5 18 -11 2 -7 10 -10 18 -7 9
3 3 12 -18 27 -26 18 -32 19 -32 7z" />
  </g>
  <g transform="translate(0.000000,1155.000000) scale(0.100000,-0.100000)" fill="#ae8714" stroke="none">
    <path d="M4074 10000 c-6 -6 -21 -12 -33 -15 -13 -2 -29 -9 -37 -16 -8 -6 -14
-9 -14 -5 0 4 -15 -1 -32 -11 -18 -9 -35 -18 -38 -18 -3 0 -15 -6 -27 -13 -13
-7 -23 -10 -23 -6 0 3 -11 -1 -25 -10 -14 -9 -25 -14 -25 -11 0 4 -12 0 -27
-8 -16 -8 -62 -29 -103 -45 -70 -28 -75 -32 -78 -62 -5 -44 4 -65 22 -51 7 6
16 8 19 4 4 -3 7 -2 7 3 0 5 10 10 22 11 11 1 25 8 29 15 5 7 9 10 9 5 0 -4
15 0 33 10 17 9 41 18 52 20 10 2 23 9 27 16 4 6 8 8 8 4 0 -5 12 -1 28 7 34
18 65 30 75 28 4 -1 7 2 7 6 0 4 10 8 22 9 11 1 25 8 29 15 5 7 9 9 9 4 0 -4
11 -1 25 8 13 9 31 16 40 16 11 0 15 12 15 50 0 54 -1 55 -16 40z" />
    <path d="M3608 4330 c-3 -51 38 -88 177 -160 11 -6 38 -21 60 -34 47 -28 234
-126 239 -126 2 0 6 20 8 44 3 45 3 45 -57 74 -54 26 -191 104 -270 153 -16
11 -38 22 -47 25 -10 4 -18 10 -18 15 0 5 -7 9 -15 9 -8 0 -15 3 -15 8 0 4
-13 14 -29 24 -29 16 -29 16 -33 -32z" />
  </g>
  <g transform="translate(0.000000,1155.000000) scale(0.100000,-0.100000)" fill="#d1a444" stroke="none">
    <path d="M6750 9951 c0 -12 39 -25 48 -16 7 7 -17 25 -35 25 -7 0 -13 -4 -13
-9z" />
    <path d="M6890 9892 c0 -5 11 -14 24 -20 19 -8 26 -20 28 -48 3 -37 3 -37 178
-111 96 -41 182 -79 191 -83 82 -43 89 -42 89 12 0 28 -3 48 -7 45 -3 -4 -21
3 -40 14 -18 11 -33 18 -33 14 0 -3 -20 6 -45 20 -24 15 -47 26 -50 26 -3 -1
-19 6 -35 14 -16 8 -32 15 -35 15 -7 0 -74 30 -120 53 -22 12 -41 20 -43 19
-1 -1 -15 4 -30 12 -41 20 -72 28 -72 18z" />
    <path d="M7353 4698 c-41 -47 -181 -166 -305 -261 -101 -77 -107 -84 -107
-119 -1 -47 -10 -68 -27 -68 -8 0 -14 -7 -14 -15 0 -16 94 48 254 175 193 152
246 211 246 271 0 58 -8 60 -47 17z" />
  </g>
  <g transform="translate(0.000000,1155.000000) scale(0.100000,-0.100000)" fill="#c89e38" stroke="none">
    <path d="M6103 10239 c12 -7 17 -23 17 -55 0 -28 4 -43 10 -39 6 3 10 1 10 -5
0 -6 5 -8 10 -5 6 3 10 2 10 -3 0 -8 19 -17 60 -27 3 0 20 -9 38 -18 17 -10
32 -15 32 -12 0 3 21 -7 48 -22 26 -15 48 -27 50 -25 1 1 16 -5 32 -13 17 -9
30 -13 30 -9 0 4 6 2 13 -4 7 -6 34 -20 60 -31 47 -20 47 -20 47 29 0 37 -4
50 -14 50 -8 0 -31 9 -50 21 -20 12 -36 18 -36 14 0 -4 -6 -3 -12 3 -14 11
-357 162 -367 162 -3 0 2 -5 12 -11z" />
    <path d="M6650 9921 c0 -12 39 -25 48 -16 7 7 -17 25 -35 25 -7 0 -13 -4 -13
-9z" />
    <path d="M6410 4016 c-113 -68 -210 -128 -216 -134 -6 -5 -20 -13 -32 -16 -12
-4 -22 -12 -22 -17 0 -5 -6 -9 -12 -9 -9 0 -12 -15 -10 -49 4 -54 -1 -55 100
11 15 10 36 22 47 28 11 6 34 19 50 30 17 10 41 25 55 33 160 87 200 118 200
156 0 35 25 71 50 71 6 0 10 5 10 10 0 17 -11 12 -220 -114z" />
  </g>
  <g transform="translate(0.000000,1155.000000) scale(0.100000,-0.100000)" fill="#ebebea" stroke="none">
    <path d="M8328 8493 c1 -615 3 -1399 5 -1743 1 -344 3 159 5 1118 1 958 -1
1742 -5 1742 -5 0 -7 -503 -5 -1117z" />
    <path d="M7124 1760 c0 -184 2 -260 3 -167 2 92 2 242 0 335 -1 92 -3 16 -3
-168z" />
    <path d="M2219 1988 c-2 -7 -1 -53 2 -103 5 -90 5 -90 7 13 2 95 -1 120 -9 90z" />
  </g>
  <g transform="translate(0.000000,1155.000000) scale(0.100000,-0.100000)" fill="#cca13e" stroke="none">
    <path d="M6558 10000 c3 -42 12 -59 25 -48 1 2 18 -7 38 -20 20 -12 39 -19 42
-15 4 3 7 1 7 -5 0 -7 3 -11 8 -10 4 1 22 -6 40 -15 17 -10 32 -15 32 -11 0 3
10 0 23 -8 33 -22 209 -99 214 -94 3 2 -5 7 -17 11 -19 6 -21 13 -18 50 1 24
0 41 -4 38 -5 -2 -8 1 -8 8 0 7 -3 9 -7 6 -3 -4 -21 3 -40 14 -18 11 -33 18
-33 14 0 -4 -16 3 -35 15 -19 12 -35 19 -35 15 0 -3 -20 6 -45 21 -25 14 -45
23 -45 19 0 -4 -16 3 -35 15 -19 12 -35 19 -35 16 0 -3 -15 3 -32 14 -44 27
-43 27 -40 -30z" />
    <path d="M6815 4268 c-71 -48 -135 -91 -141 -95 -19 -15 -49 -33 -64 -40 -33
-15 -48 -40 -51 -84 -4 -49 1 -47 161 55 19 13 65 42 102 66 115 72 130 89
126 141 -3 45 -3 45 -133 -43z" />
  </g>
  <g transform="translate(0.000000,1155.000000) scale(0.100000,-0.100000)" fill="#cecece" stroke="none">
    <path d="M5253 7793 c37 -2 97 -2 135 0 37 2 6 3 -68 3 -74 0 -105 -1 -67 -3z" />
    <path d="M6737 7433 c-10 -9 -9 -261 1 -266 4 -3 7 57 7 134 0 76 0 139 -1
139 0 0 -4 -3 -7 -7z" />
    <path d="M3482 5953 c-1 -139 1 -253 6 -253 4 0 6 75 4 167 -4 310 -8 340 -10
86z" />
    <path d="M6893 2533 c20 -2 54 -2 75 0 20 2 3 4 -38 4 -41 0 -58 -2 -37 -4z" />
    <path d="M1448 2253 c18 -2 45 -2 60 0 15 2 0 4 -33 4 -33 0 -45 -2 -27 -4z" />
    <path d="M2328 2253 c17 -2 47 -2 65 0 17 2 3 4 -33 4 -36 0 -50 -2 -32 -4z" />
    <path d="M3828 2253 c18 -2 45 -2 60 0 15 2 0 4 -33 4 -33 0 -45 -2 -27 -4z" />
    <path d="M4448 2253 c61 -2 163 -2 225 0 61 1 11 3 -113 3 -124 0 -174 -2
-112 -3z" />
    <path d="M6118 2253 c89 -2 235 -2 325 0 89 1 16 3 -163 3 -179 0 -252 -2
-162 -3z" />
    <path d="M6988 2253 c18 -2 45 -2 60 0 15 2 0 4 -33 4 -33 0 -45 -2 -27 -4z" />
  </g>
  <g transform="translate(0.000000,1155.000000) scale(0.100000,-0.100000)" fill="#8d8d8c" stroke="none">
    <path d="M5690 6618 c0 -5 82 -7 183 -6 184 2 163 6 -61 10 -67 2 -122 0 -122
-4z" />
    <path d="M4682 6613 c48 -2 129 -2 180 0 51 1 12 3 -87 3 -99 0 -141 -2 -93
-3z" />
    <path d="M5163 6613 c93 -2 241 -2 330 0 89 1 14 3 -168 3 -181 0 -254 -2
-162 -3z" />
    <path d="M4835 6383 c703 -7 1245 -7 1245 0 0 4 -341 6 -757 5 -417 -2 -636
-4 -488 -5z" />
    <path d="M3145 6198 c-8 -22 -10 -558 -3 -558 4 0 9 128 10 285 2 157 2 285 0
285 -1 0 -5 -6 -7 -12z" />
  </g>
  <g transform="translate(0.000000,1155.000000) scale(0.100000,-0.100000)" fill="#212121" stroke="none">
    <path d="M6788 7083 c46 -2 118 -2 160 0 42 1 5 3 -83 3 -88 0 -123 -2 -77 -3z" />
    <path d="M6242 6371 c2 -33 6 -54 10 -48 4 6 4 31 1 55 -6 43 -6 43 146 40 83
-2 151 0 151 5 0 4 -70 7 -155 7 -155 0 -155 0 -153 -59z" />
    <path d="M3510 6413 c0 -5 80 -7 177 -5 329 4 360 8 91 10 -148 1 -268 -1
-268 -5z" />
    <path d="M4100 6413 c0 -5 46 -7 102 -5 187 4 205 8 51 10 -84 1 -153 -1 -153
-5z" />
    <path d="M7164 5960 c0 -140 2 -198 3 -127 2 70 2 184 0 255 -1 70 -3 12 -3
-128z" />
  </g>
  <g transform="translate(0.000000,1155.000000) scale(0.100000,-0.100000)" fill="#ebe1c5" stroke="none">
    <path d="M2405 7845 c0 -990 1 -1396 2 -903 2 493 2 1303 0 1800 -1 497 -2 93
-2 -897z" />
  </g>
  <g transform="translate(0.000000,1155.000000) scale(0.100000,-0.100000)" fill="#6a6a6a" stroke="none">
    <path d="M3654 7295 c0 -77 2 -107 3 -67 2 40 2 103 0 140 -2 37 -3 4 -3 -73z" />
    <path d="M3170 6468 c0 -16 14 -18 150 -18 83 0 150 3 150 8 0 4 -64 6 -142 4
-108 -2 -143 0 -149 10 -7 10 -9 9 -9 -4z" />
    <path d="M3509 6457 c4 -4 131 -6 282 -5 274 3 274 3 -8 8 -155 3 -279 2 -274
-3z" />
    <path d="M4090 6458 c0 -5 68 -8 150 -8 83 0 150 3 150 8 0 4 -67 7 -150 7
-82 0 -150 -3 -150 -7z" />
    <path d="M9085 2015 c0 -286 1 -402 2 -257 2 145 2 379 0 520 -1 141 -2 23 -2
-263z" />
  </g>
  <g transform="translate(0.000000,1155.000000) scale(0.100000,-0.100000)" fill="#c4c4c2" stroke="none">
    <path d="M5243 7453 c42 -2 112 -2 155 0 42 1 7 3 -78 3 -85 0 -120 -2 -77 -3z" />
    <path d="M6803 7163 c37 -2 96 -2 130 0 34 2 4 3 -68 3 -71 0 -99 -1 -62 -3z" />
    <path d="M7030 7062 c0 -9 -49 -13 -172 -14 -173 -2 -173 -2 -4 -5 157 -3 204
3 183 24 -4 3 -7 1 -7 -5z" />
    <path d="M3775 6310 c-620 -5 -620 -5 3 -8 409 -1 622 1 622 8 0 6 -1 9 -2 8
-2 -2 -282 -5 -623 -8z" />
  </g>
  <g transform="translate(0.000000,1155.000000) scale(0.100000,-0.100000)" fill="#2b2b2a" stroke="none">
    <path d="M3887 7439 c8 -10 14 -63 16 -145 3 -129 3 -129 5 2 2 115 0 133 -15
145 -16 12 -17 12 -6 -2z" />
    <path d="M5115 6563 c276 -7 525 -7 525 0 0 4 -143 6 -317 5 -175 -1 -268 -4
-208 -5z" />
    <path d="M5792 6563 c48 -2 129 -2 180 0 51 1 12 3 -87 3 -99 0 -141 -2 -93
-3z" />
    <path d="M5384 2765 c0 -88 2 -123 3 -77 2 46 2 118 0 160 -1 42 -3 5 -3 -83z" />
  </g>
  <g transform="translate(0.000000,1155.000000) scale(0.100000,-0.100000)" fill="#757575" stroke="none">
    <path d="M3723 7443 c31 -2 83 -2 115 0 31 2 5 3 -58 3 -63 0 -89 -1 -57 -3z" />
    <path d="M3733 7013 c32 -2 81 -2 110 0 29 2 3 3 -58 3 -60 0 -84 -1 -52 -3z" />
    <path d="M5030 6023 c-3 -166 -2 -299 3 -294 4 4 6 140 5 302 -3 294 -3 294
-8 -8z" />
    <path d="M5612 6018 c-1 -164 1 -298 6 -298 4 0 6 87 4 192 -4 368 -8 401 -10
106z" />
    <path d="M6564 5960 c0 -140 2 -198 3 -127 2 70 2 184 0 255 -1 70 -3 12 -3
-128z" />
  </g>
  <g transform="translate(0.000000,1155.000000) scale(0.100000,-0.100000)" fill="#090909" stroke="none">
    <path d="M4913 4603 c20 -2 54 -2 75 0 20 2 3 4 -38 4 -41 0 -58 -2 -37 -4z" />
    <path d="M4084 2740 c0 -85 2 -120 3 -77 2 42 2 112 0 155 -1 42 -3 7 -3 -78z" />
    <path d="M1483 1455 c0 -33 2 -45 4 -27 2 18 2 45 0 60 -2 15 -4 0 -4 -33z" />
    <path d="M2318 1263 c18 -2 45 -2 60 0 15 2 0 4 -33 4 -33 0 -45 -2 -27 -4z" />
    <path d="M3328 1263 c18 -2 45 -2 60 0 15 2 0 4 -33 4 -33 0 -45 -2 -27 -4z" />
    <path d="M4422 1263 c48 -2 129 -2 180 0 51 1 12 3 -87 3 -99 0 -141 -2 -93
-3z" />
    <path d="M6238 1263 c18 -2 45 -2 60 0 15 2 0 4 -33 4 -33 0 -45 -2 -27 -4z" />
    <path d="M6988 1263 c18 -2 45 -2 60 0 15 2 0 4 -33 4 -33 0 -45 -2 -27 -4z" />
  </g>
  <g transform="translate(0.000000,1155.000000) scale(0.100000,-0.100000)" fill="#3c3c3b" stroke="none">
    <path d="M5213 7313 c59 -2 155 -2 215 0 59 1 10 3 -108 3 -118 0 -167 -2
-107 -3z" />
    <path d="M4025 5953 c0 -248 0 -248 28 -249 25 -1 25 -1 2 3 -25 4 -25 4 -28
249 -3 244 -3 244 -2 -3z" />
    <path d="M2423 2040 c0 -36 2 -50 4 -32 2 17 2 47 0 65 -2 17 -4 3 -4 -33z" />
  </g>
  <g transform="translate(0.000000,1155.000000) scale(0.100000,-0.100000)" fill="#343433" stroke="none">
    <path d="M6548 6263 c178 -2 466 -2 640 0 174 1 29 2 -323 2 -352 0 -495 -1
-317 -2z" />
  </g>
  <g transform="translate(0.000000,1155.000000) scale(0.100000,-0.100000)" fill="#b0b0af" stroke="none">
    <path d="M5233 7893 c48 -2 126 -2 175 0 48 1 8 3 -88 3 -96 0 -136 -2 -87 -3z" />
    <path d="M7087 6243 c-3 -5 19 -8 48 -8 29 0 51 3 48 8 -2 4 -24 7 -48 7 -24
0 -46 -3 -48 -7z" />
    <path d="M6074 2745 c0 -82 2 -115 3 -72 2 43 2 110 0 150 -1 40 -3 5 -3 -78z" />
  </g>
  <g transform="translate(0.000000,1155.000000) scale(0.100000,-0.100000)" fill="#555555" stroke="none">
    <path d="M7499 5647 c5 -5 30 -7 57 -5 49 3 49 3 -8 8 -31 3 -53 1 -49 -3z" />
    <path d="M3068 5643 c18 -2 45 -2 60 0 15 2 0 4 -33 4 -33 0 -45 -2 -27 -4z" />
    <path d="M4458 5643 c23 -2 59 -2 80 0 20 2 1 4 -43 4 -44 0 -61 -2 -37 -4z" />
    <path d="M6113 5643 c20 -2 54 -2 75 0 20 2 3 4 -38 4 -41 0 -58 -2 -37 -4z" />
  </g>
  <g transform="translate(0.000000,1155.000000) scale(0.100000,-0.100000)" fill="#4a4a49" stroke="none">
    <path d="M3793 2665 c0 -38 2 -53 4 -32 2 20 2 52 0 70 -2 17 -4 1 -4 -38z" />
    <path d="M4577 2183 c18 -2 50 -2 70 0 21 2 7 4 -32 4 -38 0 -55 -2 -38 -4z" />
    <path d="M8853 1123 c20 -2 54 -2 75 0 20 2 3 4 -38 4 -41 0 -58 -2 -37 -4z" />
    <path d="M9858 1123 c23 -2 59 -2 80 0 20 2 1 4 -43 4 -44 0 -61 -2 -37 -4z" />
  </g>
  <g transform="translate(0.000000,1155.000000) scale(0.100000,-0.100000)" fill="#828282" stroke="none">
    <path d="M6793 7533 c43 -2 110 -2 150 0 40 1 5 3 -78 3 -82 0 -115 -2 -72 -3z" />
    <path d="M4504 1995 c0 -82 2 -115 3 -72 2 43 2 110 0 150 -1 40 -3 5 -3 -78z" />
    <path d="M3744 1755 c0 -165 2 -234 3 -153 2 81 2 216 0 300 -1 84 -3 18 -3
-147z" />
    <path d="M4504 1605 c0 -55 1 -76 3 -47 2 29 2 74 0 100 -2 26 -3 2 -3 -53z" />
  </g>
  <g transform="translate(0.000000,1155.000000) scale(0.100000,-0.100000)" fill="#141413" stroke="none">
    <path d="M6788 7513 c39 -2 105 -2 145 0 39 1 7 3 -73 3 -80 0 -112 -2 -72 -3z" />
  </g>
  <g transform="translate(0.000000,1155.000000) scale(0.100000,-0.100000)" fill="#9f9f9f" stroke="none" />
  <g transform="translate(0.000000,1155.000000) scale(0.100000,-0.100000)" fill="#bdbdbd" stroke="none" />
  <g transform="translate(0.000000,1155.000000) scale(0.100000,-0.100000)" fill="#c7c2b3" stroke="none">
    <path d="M2623 9553 c76 -2 198 -2 270 0 73 1 11 3 -138 3 -148 0 -208 -2
-132 -3z" />
    <path d="M3108 9553 c23 -2 59 -2 80 0 20 2 1 4 -43 4 -44 0 -61 -2 -37 -4z" />
  </g>
  <g transform="translate(0.000000,1155.000000) scale(0.100000,-0.100000)" fill="#c5b897" stroke="none" />
  <g transform="translate(0.000000,1155.000000) scale(0.100000,-0.100000)" fill="#c8c5bb" stroke="none" />
  <g transform="translate(0.000000,1155.000000) scale(0.100000,-0.100000)" fill="#dec58d" stroke="none" />
  <g transform="translate(0.000000,1155.000000) scale(0.100000,-0.100000)" fill="#c4a24b" stroke="none" />
  <g transform="translate(0.000000,1155.000000) scale(0.100000,-0.100000)" fill="#d2b977" stroke="none" />
  <g transform="translate(0.000000,1155.000000) scale(0.100000,-0.100000)" fill="#d8b165" stroke="none" />
  <g transform="translate(0.000000,1155.000000) scale(0.100000,-0.100000)" fill="#d2aa53" stroke="none" />
  <g transform="translate(0.000000,1155.000000) scale(0.100000,-0.100000)" fill="#c1a765" stroke="none" />
  <g transform="translate(0.000000,1155.000000) scale(0.100000,-0.100000)" fill="#bdac79" stroke="none" />
  <g transform="translate(0.000000,1155.000000) scale(0.100000,-0.100000)" fill="#e4b558" stroke="none" />
</svg>